<svg xmlns="http://www.w3.org/2000/svg" width="210" height="110" viewBox="250 23 45 150" fill="none">

<g transform="matrix(0.066667, 0, 0, -0.066667, -26.833788, 303.267334)" fill="#000000" stroke="none" id="object-0">
  <path d="M3308 4148 c-1129 -246 -1132 -1809 -5 -2092 804 -203 1523 262 1600
1034 20 199 60 296 170 414 249 265 651 292 952 64 54 -41 103 -72 108 -70 95
43 372 263 360 286 -94 175 -517 366 -847 381 -713 33 -1196 -388 -1251 -1090
-38 -496 -261 -796 -669 -900 -142 -37 -195 -37 -80 -1 287 90 539 348 614
629 21 80 19 82 -62 61 -246 -65 -437 242 -272 438 82 96 214 126 329 74 l62
-28 10 55 c16 81 75 218 129 298 l48 71 -98 90 c-280 259 -709 371 -1098 286z
m394 -229 c142 -67 185 -287 82 -411 -168 -199 -488 -83 -488 176 0 206 210
328 406 235z m-589 -542 c120 -55 186 -181 158 -304 -57 -254 -395 -299 -513
-69 -117 229 122 479 355 373z m552 -162 c82 -81 20 -230 -95 -230 -68 0 -135
70 -135 142 0 119 145 174 230 88z m58 -422 c106 -66 150 -231 91 -347 -129
-252 -511 -166 -517 116 -5 223 232 351 426 231z"></path>
  <path d="M4944 2719 c-38 -118 -70 -179 -158 -294 l-75 -98 86 -69 c412 -329
1067 -346 1513 -41 112 77 241 208 222 226 -23 21 -368 242 -377 242 -5 0 -41
-30 -80 -66 -316 -296 -841 -237 -1063 120 l-41 67 -27 -87z"></path>
</g>

</svg>